<mxfile host="app.diagrams.net" modified="2023-06-05T07:35:07.150Z" agent="Mozilla/5.0 (Macintosh; Intel Mac OS X 10_15_7) AppleWebKit/537.36 (KHTML, like Gecko) Chrome/113.0.0.0 Safari/537.36" etag="9QKsNQ_i9ZbnRBnCnWcr" version="21.3.7" type="github">
  <diagram name="Page-1" id="fpf58elpJaWsVzwBnSij">
    <mxGraphModel dx="1753" dy="1023" grid="1" gridSize="10" guides="1" tooltips="1" connect="1" arrows="1" fold="1" page="1" pageScale="1" pageWidth="827" pageHeight="1169" math="0" shadow="0">
      <root>
        <mxCell id="0" />
        <mxCell id="1" parent="0" />
        <mxCell id="xsAlT1zWk4mTeIgQwpzX-5" value="" style="edgeStyle=orthogonalEdgeStyle;rounded=0;orthogonalLoop=1;jettySize=auto;html=1;" edge="1" parent="1" source="xsAlT1zWk4mTeIgQwpzX-3" target="xsAlT1zWk4mTeIgQwpzX-4">
          <mxGeometry relative="1" as="geometry" />
        </mxCell>
        <mxCell id="xsAlT1zWk4mTeIgQwpzX-3" value="&lt;meta charset=&quot;utf-8&quot;&gt;&lt;span style=&quot;color: rgb(0, 0, 0); font-family: Helvetica; font-size: 12px; font-style: normal; font-variant-ligatures: normal; font-variant-caps: normal; font-weight: 400; letter-spacing: normal; orphans: 2; text-align: center; text-indent: 0px; text-transform: none; widows: 2; word-spacing: 0px; -webkit-text-stroke-width: 0px; background-color: rgb(251, 251, 251); text-decoration-thickness: initial; text-decoration-style: initial; text-decoration-color: initial; float: none; display: inline !important;&quot;&gt;Start page&lt;/span&gt;" style="rounded=1;whiteSpace=wrap;html=1;fillColor=#dae8fc;strokeColor=#6c8ebf;" vertex="1" parent="1">
          <mxGeometry x="40" y="120" width="110" height="50" as="geometry" />
        </mxCell>
        <mxCell id="xsAlT1zWk4mTeIgQwpzX-7" style="edgeStyle=orthogonalEdgeStyle;rounded=0;orthogonalLoop=1;jettySize=auto;html=1;" edge="1" parent="1" source="xsAlT1zWk4mTeIgQwpzX-4" target="xsAlT1zWk4mTeIgQwpzX-6">
          <mxGeometry relative="1" as="geometry" />
        </mxCell>
        <mxCell id="xsAlT1zWk4mTeIgQwpzX-4" value="User click on search" style="rounded=1;whiteSpace=wrap;html=1;fillColor=#dae8fc;strokeColor=#6c8ebf;" vertex="1" parent="1">
          <mxGeometry x="230" y="120" width="120" height="50" as="geometry" />
        </mxCell>
        <mxCell id="xsAlT1zWk4mTeIgQwpzX-9" style="edgeStyle=orthogonalEdgeStyle;rounded=0;orthogonalLoop=1;jettySize=auto;html=1;" edge="1" parent="1" source="xsAlT1zWk4mTeIgQwpzX-6" target="xsAlT1zWk4mTeIgQwpzX-8">
          <mxGeometry relative="1" as="geometry" />
        </mxCell>
        <mxCell id="xsAlT1zWk4mTeIgQwpzX-11" style="edgeStyle=orthogonalEdgeStyle;rounded=0;orthogonalLoop=1;jettySize=auto;html=1;" edge="1" parent="1" source="xsAlT1zWk4mTeIgQwpzX-6" target="xsAlT1zWk4mTeIgQwpzX-10">
          <mxGeometry relative="1" as="geometry" />
        </mxCell>
        <mxCell id="xsAlT1zWk4mTeIgQwpzX-6" value="Search Type" style="rhombus;whiteSpace=wrap;html=1;fillColor=#d5e8d4;strokeColor=#82b366;" vertex="1" parent="1">
          <mxGeometry x="245" y="200" width="90" height="80" as="geometry" />
        </mxCell>
        <mxCell id="xsAlT1zWk4mTeIgQwpzX-8" value="Users List" style="rounded=1;whiteSpace=wrap;html=1;fillColor=#dae8fc;strokeColor=#6c8ebf;" vertex="1" parent="1">
          <mxGeometry x="160" y="320" width="100" height="50" as="geometry" />
        </mxCell>
        <mxCell id="xsAlT1zWk4mTeIgQwpzX-10" value="Users Mower" style="rounded=1;whiteSpace=wrap;html=1;fillColor=#dae8fc;strokeColor=#6c8ebf;" vertex="1" parent="1">
          <mxGeometry x="320" y="320" width="110" height="50" as="geometry" />
        </mxCell>
        <mxCell id="xsAlT1zWk4mTeIgQwpzX-14" style="edgeStyle=orthogonalEdgeStyle;rounded=0;orthogonalLoop=1;jettySize=auto;html=1;" edge="1" parent="1" source="xsAlT1zWk4mTeIgQwpzX-13" target="xsAlT1zWk4mTeIgQwpzX-6">
          <mxGeometry relative="1" as="geometry" />
        </mxCell>
        <mxCell id="xsAlT1zWk4mTeIgQwpzX-13" value="By define the search is for a mower, but if we find a @&amp;nbsp;the type of list displayed will be a user." style="text;html=1;strokeColor=default;fillColor=none;align=center;verticalAlign=middle;whiteSpace=wrap;rounded=0;dashed=1;" vertex="1" parent="1">
          <mxGeometry x="410" y="203.75" width="180" height="72.5" as="geometry" />
        </mxCell>
        <mxCell id="xsAlT1zWk4mTeIgQwpzX-20" value="Frontend - UI" style="swimlane;horizontal=0;whiteSpace=wrap;html=1;startSize=20;" vertex="1" parent="1">
          <mxGeometry x="-50" y="60" width="690" height="370" as="geometry" />
        </mxCell>
      </root>
    </mxGraphModel>
  </diagram>
</mxfile>
